<?xml version="1.0" encoding="utf-8"?>
<svg id="master-artboard" viewBox="0 0 1400 980" version="1.1" xmlns="http://www.w3.org/2000/svg" x="0px" y="0px" style="enable-background:new 0 0 336 235.2;"><rect id="ee-background" x="0" y="0" width="1400" height="980" style="fill: white; fill-opacity: 0; pointer-events: none;"/><defs><style id="ee-google-fonts">@import url(https://fonts.googleapis.com/css?family=Audiowide:400);</style><linearGradient id="083956b5-72ae-40fa-8b82-cac8aac20778" x1="773.72" y1="729.73" x2="773.72" y2="298.86" gradientUnits="userSpaceOnUse"><stop offset="0" stop-color="gray" stop-opacity="0.25"/><stop offset="0.54" stop-color="gray" stop-opacity="0.12"/><stop offset="1" stop-color="gray" stop-opacity="0.1"/></linearGradient></defs>





















































































































































<g transform="matrix(1.2367491166077738, 0, 0, 1.2367491166077738, 0, 105.13603938341987)"><title>surfer</title><path d="M 756.747314453125 485.17071533203125" style="fill: rgb(0, 0, 0); fill-opacity: 1; stroke: rgb(0, 0, 0); stroke-opacity: 1; stroke-width: 0; paint-order: fill;"/><path d="M 764.1507568359375 491.0934753417969" style="fill: rgb(0, 0, 0); fill-opacity: 1; stroke: rgb(0, 0, 0); stroke-opacity: 1; stroke-width: 0; paint-order: fill;"/></g><g transform="matrix(1.4233635635431896, 0, 0, 1.4233635635431896, 321.2785606642571, 5.684341886080802e-14)"><title>travelers</title><path d="M 249.239998 38.369999 A 39.68 30.950001 0 0 1 209.559998 69.32 A 39.68 30.950001 0 0 1 169.879997 38.369999 A 39.68 30.950001 0 0 1 209.559998 7.419998 A 39.68 30.950001 0 0 1 249.239998 38.369999 Z" fill="#3f3d56"/><path d="M 346.060013 143.119995 A 57.139999 57.139999 0 0 1 288.920013 200.259995 A 57.139999 57.139999 0 0 1 231.780014 143.119995 A 57.139999 57.139999 0 0 1 288.920013 85.979996 A 57.139999 57.139999 0 0 1 346.060013 143.119995 Z" fill="#3f3d56"/><path d="M 484.53 649.840027 A 14.28 14.28 0 0 1 470.25 664.120027 A 14.28 14.28 0 0 1 455.97 649.840027 A 14.28 14.28 0 0 1 470.25 635.560027 A 14.28 14.28 0 0 1 484.53 649.840027 Z" fill="#3f3d56" style="fill: rgb(63, 61, 86);"/><path d="M 409.940003 649.840027 A 14.28 14.28 0 0 1 395.660004 664.120027 A 14.28 14.28 0 0 1 381.380004 649.840027 A 14.28 14.28 0 0 1 395.660004 635.560027 A 14.28 14.28 0 0 1 409.940003 649.840027 Z" fill="#3f3d56" style="fill: rgb(63, 61, 86);"/><path d="M 411.529999 305.420013 H 417.879999 V 480.810013 H 411.529999 V 305.420013 Z" fill="#3f3d56"/><path d="M 445.649994 305.420013 H 451.999994 V 480.810013 H 445.649994 V 305.420013 Z" fill="#3f3d56"/><path d="M747,415.92l-1.59-4.76s17.46-20.63,42.06-4l-1.59,7.15h-6.35s-10.31-8.65-27.77,1.23Z" transform="matrix(1, 0, 0, 1, -335.32515030061734, -105.73999786376952)" fill="#3f3d56" style="fill: rgb(63, 61, 86);"/><path d="M 249.240005 280.420013 H 306.380005 V 353.430016 H 249.240005 V 280.420013 Z" fill="#fbbebe"/><path d="M 328.600006 259.779999 H 346.060005 V 294.699997 H 328.600006 V 259.779999 Z" fill="#fbbebe"/><path d="M590.7,741.3l-7.14,21.43s-3.18,15.87,7.14,16.66,27-2.38,27-2.38,2.38-7.14,0-13.49-9.52-23.81-9.52-23.81Z" transform="translate(-333.92 -105.74)" fill="#3c354c"/><path d="M644.66,742.09s-11.11,27.78-2.38,32.54,20.64.79,30.16,4.76,35.71-5.55,35.71-5.55,3.18-8.73-14.28-11.11c0,0-19-14.29-19-17.46s-11.11-3.18-11.11-3.18Z" transform="translate(-333.92 -105.74)" fill="#3c354c"/><path d="M642.28,425.45s-65.07,13.49-73,9.52-15.87,54-15.87,54-3.18,34.92,7.93,81.74,0,69.84,0,69.84,1.59,44.44,13.5,65.08,11.9,39.68,11.9,39.68,23,2.38,23.81-3.18c0,0-9.53-22.22-7.94-42.85s-4.76-60.32-4.76-60.32,10.32-50,8.73-69,5.56-59.52,9.52-52.38,14.29,42.06,14.29,49.21,4,54.75,6.35,57.93,1.58,12.7.79,17.46-.79,40.47,3.17,59.52.8,40.47,1.59,43.65,23.81.79,24.6-4.77c0,0,3.18-34.12,4.77-38.88S674,636.54,674,636.54s1.58-46.82,3.17-51.58,4-107.14-6.35-119-6.35-42.06-6.35-42.06Z" transform="translate(-333.92 -105.74)" fill="#3f3d56"/><path d="M588.79,287.2c-2.94,5.54-5.9,11.13-7.74,17.14s-2.48,12.52-.75,18.56a46,46,0,0,0,5.12,10.7,36.7,36.7,0,0,0,6.47,8.64c6,5.48,14.72,6.58,22.82,7.44a11.56,11.56,0,0,0,4.19-.07,7.92,7.92,0,0,0,3-1.64c3.55-3,5.16-7.58,6.46-12a198,198,0,0,0,6.62-32.14,14.89,14.89,0,0,0,0-5.2c-.7-3-3.1-5.33-4.84-7.91a20.17,20.17,0,0,1-3.44-10.4c-.07-1.81,0-3.81-1.14-5.19a7,7,0,0,0-2.69-1.66c-4.73-2-9.45-4-14.19-5.92-2.86-1.18-8-4.32-11-2-2.57,2-1.33,6.64-2.43,9.42C593.56,279.19,590.91,283.2,588.79,287.2Z" transform="translate(-333.92 -105.74)" fill="#fbbebe"/><path d="M588.79,287.2c-2.94,5.54-5.9,11.13-7.74,17.14s-2.48,12.52-.75,18.56a46,46,0,0,0,5.12,10.7,36.7,36.7,0,0,0,6.47,8.64c6,5.48,14.72,6.58,22.82,7.44a11.56,11.56,0,0,0,4.19-.07,7.92,7.92,0,0,0,3-1.64c3.55-3,5.16-7.58,6.46-12a198,198,0,0,0,6.62-32.14,14.89,14.89,0,0,0,0-5.2c-.7-3-3.1-5.33-4.84-7.91a20.17,20.17,0,0,1-3.44-10.4c-.07-1.81,0-3.81-1.14-5.19a7,7,0,0,0-2.69-1.66c-4.73-2-9.45-4-14.19-5.92-2.86-1.18-8-4.32-11-2-2.57,2-1.33,6.64-2.43,9.42C593.56,279.19,590.91,283.2,588.79,287.2Z" transform="translate(-333.92 -105.74)" opacity="0.1"/><path d="M 313.920015 155.429993 A 27.780001 27.780001 0 0 1 286.140015 183.209993 A 27.780001 27.780001 0 0 1 258.360014 155.429993 A 27.780001 27.780001 0 0 1 286.140015 127.649992 A 27.780001 27.780001 0 0 1 313.920015 155.429993 Z" fill="#fbbebe"/><path d="M629.81,331.23c-5.26,1.89-10.69,3.52-16.28,3.72a53.89,53.89,0,0,1-12.45-1.33,158.09,158.09,0,0,1-24.78-7.07c-1.72,3.39-2.18,7.26-2.33,11.06-.43,11.49,1.86,22.89,2.74,34.36,1.11,14.58,0,29.48,3.75,43.6a12,12,0,0,1,2.68-6.54,14.84,14.84,0,0,1,4.49-3.3,35.8,35.8,0,0,1,24.58-3.06c4.81,1.14,9.92,3.27,14.48,1.36,2.72-1.15,4.69-3.57,6.2-6.11a50.22,50.22,0,0,0,5.42-14.69c3-13.24,3.4-26.93,3.76-40.51.1-3.63,1.66-14.42-1.35-17.08-2.11-1.85-2.73.79-4.25,2.17A19.43,19.43,0,0,1,629.81,331.23Z" transform="translate(-333.92 -105.74)" fill="#f2f2f2" style="fill: rgb(217, 226, 228);"/><path d="M590.71,283.54c-1.85-1.45-4.59-1-6.63.23s-3.69,2.93-5.76,4.05c-5.74,3.11-13.45.83-18.9,4.45-5.12,3.41-6,10.43-6.4,16.57-1,15.6-1.86,31.31-5.61,46.49-1,4-2.2,8.1-1.82,12.22a32.43,32.43,0,0,0,1.66,6.9l4.92,15.37c2.28,7.14,4.59,14.39,4.83,21.88s-1.52,14.61-3.27,21.76A255.21,255.21,0,0,0,547,476.37c-.31,4.79-.44,9.79,1.5,14.18,2,4.59,6.06,8,10.34,10.59s8.93,4.59,13.12,7.34c8.41,5.53,15.16,14.24,25,16.51,4.51,1,9.23.6,13.77-.28,0,0-2.57-116.72-9.72-133.39s-13.49-88.88-13.49-91.26S590.71,283.54,590.71,283.54Z" transform="translate(-333.92 -105.74)" fill="#6c63ff" style="fill: rgb(254, 186, 2);"/><path d="M629.33,287.36s37.55,0,43.11,19.84-15.87,52.38-15.87,52.38,8.73,64.28,12.69,70.63,2.39,19,2.39,19a52.51,52.51,0,0,1,1.58,27c-3.17,14.28-15.08,39.68-15.08,39.68s-15.87,0-19.84,9.52-4.76-41.27-4.76-41.27-14.28-92.85-13.49-98.4,4.76-51.59,6.35-64.29S631.46,292.12,629.33,287.36Z" transform="translate(-333.92 -105.74)" fill="#6c63ff" style="fill: rgb(254, 186, 2);"/><path d="M658.15,300.06s18.26,5.55,18.26,11.9S682,352.43,682,363.54s-2.38,12.7,0,16.67-25.39,2.38-25.39,2.38l-5.05-45.23Z" transform="translate(-333.92 -105.74)" fill="#6c63ff" style="fill: rgb(254, 186, 2);"/><path d="M550.22,357.2s35.72,2.38,42.07-2.39,33.33,6.35,35.71,12.7-38.1,7.14-44.44,7.14-36.51,9.53-36.51,9.53Z" transform="translate(-333.92 -105.74)" fill="#a0616a"/><path d="M476.69,726.87s-16.65,42-8,47,99.86,1.44,99.86,1.44,15.19-9.4-2.17-15.92c0,0-14.48-.72-23.88-6.51s-20.27-16.64-20.27-16.64-.72-15.92-6.51-12.3a14.86,14.86,0,0,0-6.51,10.13Z" transform="translate(-333.92 -105.74)" fill="#3f3d56"/><path d="M476.69,726.87s-16.65,42-8,47,99.86,1.44,99.86,1.44,15.19-9.4-2.17-15.92c0,0-14.48-.72-23.88-6.51s-20.27-16.64-20.27-16.64-.72-15.92-6.51-12.3a14.86,14.86,0,0,0-6.51,10.13Z" transform="translate(-333.92 -105.74)" opacity="0.1"/><path d="M451,739.71s-18.25,46-8.73,51.58,109.52,1.59,109.52,1.59,16.67-10.31-2.38-17.46c0,0-15.87-.79-26.19-7.14S501,750,501,750s-.79-17.46-7.14-13.49a16.28,16.28,0,0,0-7.14,11.11Z" transform="translate(-333.92 -105.74)" fill="#3f3d56"/><path d="M544.67,447.67l-11.11,100s-4,47.62-15.87,57.93c0,0,0,15.08-4,19.84l-5.56,62.7s7.94,23,7.15,27,3.17,16.66,2.38,18.25-38.1,0-38.1,0l7.94-127.77,24.6-177.76Z" transform="translate(-333.92 -105.74)" fill="#3c354c"/><path d="M544.67,447.67l-11.11,100s-4,47.62-15.87,57.93c0,0,0,15.08-4,19.84l-5.56,62.7s7.94,23,7.15,27,3.17,16.66,2.38,18.25-38.1,0-38.1,0l7.94-127.77,24.6-177.76Z" transform="translate(-333.92 -105.74)" opacity="0.1" style="fill: rgb(0, 0, 0);"/><path d="M524.83,444.49s-8.73,81.74-12.7,99.2a225.33,225.33,0,0,0-4.76,34.92s-.79,25.4-7.94,32.54A21.43,21.43,0,0,0,493.09,627s-7.15,80.15-3.18,89.68,7.94,17.46,4,23.8-47.62,6.35-47.62,1.59,0-8.73-2.38-11.11,0-17.46,0-17.46-9.52-70.63-.79-91.26,12.7-77,12.7-77-6.35-64.28-14.29-74.6,1.59-46.82,1.59-46.82Z" transform="translate(-333.92 -105.74)" fill="#3c354c" style="fill: rgb(63, 61, 86);"/><path d="M502.49,190.65c.92,2.1,3.13,3.27,5.14,4.38,11.65,6.42,21.4,15.73,31,24.93a36.43,36.43,0,0,1,1.45-24.63c1.14-2.65,2.65-5.51,1.83-8.28-.61-2-2.34-3.52-4-4.82a124.59,124.59,0,0,0-12.27-8.37c-3-1.78-9.08-6.51-12.49-6-.18,4.61-.27,8.73-2.29,13C510.36,181.92,502.84,191.45,502.49,190.65Z" transform="translate(-333.92 -105.74)" fill="#a0616a"/><path d="M 241.700005 62.57 A 32.540001 32.540001 0 0 1 209.160004 95.110001 A 32.540001 32.540001 0 0 1 176.620003 62.57 A 32.540001 32.540001 0 0 1 209.160004 30.029999 A 32.540001 32.540001 0 0 1 241.700005 62.57 Z" fill="#a0616a"/><path d="M544.67,245.3s5.55-27.78-10.32-37.3-34.12-20.63-34.12-20.63-5.56-.8-7.94,11.11c0,0-45.23,8.73-50,51.58s3.18,105.55,3.18,105.55-7.14,54.76-15.87,84.12c0,0-7.15,6.35,24.6-3.17s87.29,27,87.29,27,5.56-5.56,5.56-9.53,6.35-27,6.35-27,5.55-97.61,7.93-108.72S551.81,246.89,544.67,245.3Z" transform="translate(-333.92 -105.74)" fill="#3f3d56"/><path d="M495.47,300.06s43.64-25.4,34.91-57.94-27.77-42.85-27.77-42.85-30.95-10.32-57.14,23l1.59,15.08s28.57-57.93,59.52-21.43S495.47,300.06,495.47,300.06Z" transform="translate(-333.92 -105.74)" fill="#6c63ff" style="fill: rgb(0, 159, 227);"/><path d="M448.64,223.87V354l-8.11,44.39-3.79,20.69H409l-38.88-14.29v-96s32.53-64.29,42.85-76.19S448.64,223.87,448.64,223.87Z" transform="translate(-333.92 -105.74)" fill="#6c63ff" style="fill: rgb(0, 159, 227);"/><path d="M 106.5999984741211 292.6600036621094 L 102.81999969482422 313.3500061035156 L 75.04000091552734 313.3500061035156 L 36.15999984741211 299.07000732421875 L 106.5999984741211 292.6600036621094 Z" opacity="0.1"/><path d="M 105.19999694824219 264.94000244140625 L 173.4499969482422 181.61000061035156 L 113.12999725341797 268.1199951171875 L 106.77999877929688 269.70001220703125 L 105.19999694824219 264.94000244140625 Z" fill="#6c63ff" style="fill: rgb(0, 159, 227);"/><path d="M535.41,171.67c1.85-1.25,4.17-1.48,6.39-1.7s4.54-.52,6.31-1.88c3.07-2.36,3.3-6.92,5.55-10.07,3.25-4.57,9.74-5.12,15.35-4.9,3.43.14,7.12.35,10-1.5s4.3-5.5,5.3-8.87c1.19-4,1.95-8.88-1-11.84-2-2.06-5.24-2.47-7.5-4.28s-3.31-4.92-4.58-7.63a20.66,20.66,0,0,0-6.65-8.33c-4.26-3-9.7-3.62-14.89-3.57s-10.4.74-15.55.1c-4.22-.52-8.43-1.92-12.63-1.3-5.36.79-9.79,4.84-12.44,9.57s-3.77,10.13-4.87,15.43l-3,14.43c-.92,4.48-1.85,9.07-1.14,13.58,1.48,9.36,9.76,16.8,10.33,26.25a16.11,16.11,0,0,1,9.84-11.69,3.11,3.11,0,0,1,2-.25c.82.27,1.3,1.09,1.82,1.78,1.36,1.81,5.63,4.55,8,3.27C534.31,177.12,532.69,173.52,535.41,171.67Z" transform="translate(-333.92 -105.74)" fill="#3f3d56"/><path d="M743.07,575.44s-21.43.79-24.6,25.39,0,138.88,0,138.88,24.6,18.25,54.76,15.87,78.56-11.11,78.56-11.11v-134c0-20-16.68-36.31-36.66-35.16-.47,0-1,.06-1.43.11Z" transform="translate(-333.92 -105.74)" fill="#3c354c" style="fill: rgb(63, 61, 86);"/><path d="M 454.380006 653.809998 A 14.28 14.28 0 0 1 440.100006 668.089997 A 14.28 14.28 0 0 1 425.820006 653.809998 A 14.28 14.28 0 0 1 440.100006 639.529998 A 14.28 14.28 0 0 1 454.380006 653.809998 Z" fill="#3f3d56" style="fill: rgb(63, 61, 86);"/><path d="M 532.149995 647.460022 A 14.28 14.28 0 0 1 517.869995 661.740022 A 14.28 14.28 0 0 1 503.589995 647.460022 A 14.28 14.28 0 0 1 517.869995 633.180022 A 14.28 14.28 0 0 1 532.149995 647.460022 Z" fill="#3f3d56" style="fill: rgb(63, 61, 86);"/><path d="M453.41,319.9s-5.56,34.91,17.45,31.74c0,0,11.91-1.59,13.5,0s60.31-8.73,68.25-17.46c0,0,9.52-3.17,14.28,1.59S619.27,345.29,605,331s-36.5-17.46-36.5-17.46l-30.16,1.58s-15.87,4.77-25.39,0S476.42,312,476.42,312Z" transform="translate(-333.92 -105.74)" fill="#a0616a"/><path d="M485.94,209.59s-35.71,4-35.71,55.55V331s19.84-8.73,23.81-7.94,19.84-10.32,19.84-10.32S512.13,269.9,510.54,258,509.75,211.17,485.94,209.59Z" transform="translate(-333.92 -105.74)" fill="#3f3d56"/><path d="M 315.5 231.61000061035156 L 279.7900085449219 257.010009765625 L 302.010009765625 259.3900146484375 L 332.9599914550781 233.1999969482422 L 315.5 231.61000061035156 Z" fill="#3f3d56" style="fill: rgb(0, 159, 227);"/><path d="M677.2,375.45s8.73,27-3.17,34.92-31.75-27.78-31.75-27.78-21.43-25.39-7.14-30.95,20.12,18.65,20.12,18.65L674,386.56Z" transform="translate(-333.92 -105.74)" fill="#fbbebe"/><path d="M 320.660013 134.789993 A 31.74 20.24 0 0 1 288.920013 155.029993 A 31.74 20.24 0 0 1 257.180014 134.789993 A 31.74 20.24 0 0 1 288.920013 114.549994 A 31.74 20.24 0 0 1 320.660013 134.789993 Z" fill="#3f3d56"/><path d="M 317.480001 85.989998 A 23.01 23.01 0 0 1 294.470001 108.999998 A 23.01 23.01 0 0 1 271.460001 85.989998 A 23.01 23.01 0 0 1 294.470001 62.979998 A 23.01 23.01 0 0 1 317.480001 85.989998 Z" fill="#3f3d56"/><path d="M 239.710003 42.34 A 30.549999 15.87 0 0 1 209.160004 58.21 A 30.549999 15.87 0 0 1 178.610004 42.34 A 30.549999 15.87 0 0 1 209.160004 26.47 A 30.549999 15.87 0 0 1 239.710003 42.34 Z" fill="#3f3d56"/><path d="M 191.299996 45.110001 A 10.71 26.59 0 0 1 180.589996 71.700001 A 10.71 26.59 0 0 1 169.879996 45.110001 A 10.71 26.59 0 0 1 180.589996 18.52 A 10.71 26.59 0 0 1 191.299996 45.110001 Z" fill="#3f3d56"/><path d="M355.09,778.54c3-5.51-.4-12.26-4.28-17.18s-8.62-10-8.52-16.29c.15-9,9.7-14.31,17.33-19.08a84.45,84.45,0,0,0,15.56-12.51,22.56,22.56,0,0,0,4.78-6.4c1.58-3.52,1.54-7.52,1.44-11.38q-.5-19.26-1.91-38.48" transform="translate(-333.92 -105.74)" fill="none" stroke="#3f3d56" stroke-miterlimit="10" stroke-width="4"/><path d="M394,656.51a14,14,0,0,0-7-11.5l-3.14,6.22.1-7.52A14,14,0,1,0,394,656.51Z" transform="translate(-333.92 -105.74)" fill="#57b894" style="fill: rgb(254, 186, 2);"/><path d="M369,751.51a14,14,0,1,1,.68-11.3l-8.77,7.13,9.65-2.24A13.89,13.89,0,0,1,369,751.51Z" transform="translate(-333.92 -105.74)" fill="#57b894"/><path d="M362,724.26a14,14,0,0,1-14.67-13.37,13.82,13.82,0,0,1,1.21-6.39,14.06,14.06,0,0,1,9-7.78l-.07,5.79,3.17-6.29h0a14,14,0,0,1,14.67,13.37,13.84,13.84,0,0,1-.6,4.79A14,14,0,0,1,362,724.26Z" transform="translate(-333.92 -105.74)" fill="#57b894"/><path d="M396.11,701.59a14,14,0,1,1,6.21-26.27l-2.48,6.8,5.1-4.9a14,14,0,0,1-8.83,24.37Z" transform="translate(-333.92 -105.74)" fill="#57b894"/><path d="M392.11,660.25c-3.23.36-6.39,1.37-9.64,1.57s-6.82-.58-8.87-3.11c-1.11-1.36-1.67-3.08-2.6-4.56a10.05,10.05,0,0,0-3.53-3.33,14,14,0,1,0,26.23,9.32C393.17,660.16,392.64,660.2,392.11,660.25Z" transform="translate(-333.92 -105.74)" opacity="0.1" style="fill: rgb(254, 186, 2);"/><path d="M396.11,701.59a14.06,14.06,0,0,1-13.35-20,10.3,10.3,0,0,1,2.83,2.83c1,1.51,1.6,3.25,2.78,4.64,2.18,2.57,5.92,3.41,9.3,3.25s6.66-1.11,10-1.42c.47,0,.95-.08,1.42-.09A14,14,0,0,1,396.11,701.59Z" transform="translate(-333.92 -105.74)" opacity="0.1"/><path d="M362,724.26a14,14,0,0,1-14.67-13.37,13.82,13.82,0,0,1,1.21-6.39,11.32,11.32,0,0,1,3,2.85c1.09,1.54,1.77,3.31,3,4.73,2.37,2.64,6.35,3.57,9.94,3.48s6.82-.93,10.27-1.19A14,14,0,0,1,362,724.26Z" transform="translate(-333.92 -105.74)" opacity="0.1"/><path d="M369,751.51a14,14,0,0,1-25.58-11.45,14.25,14.25,0,0,1,3.08,2.74c1.33,1.63,2.21,3.47,3.75,5,2.87,2.82,7.5,4,11.63,4.09A62.17,62.17,0,0,0,369,751.51Z" transform="translate(-333.92 -105.74)" opacity="0.1"/><path d="M333.92,772.2s11.08-.34,14.42-2.72,17-5.22,17.87-1.4,16.64,19,4.14,19.06-29.06-1.95-32.39-4S333.92,772.2,333.92,772.2Z" transform="translate(-333.92 -105.74)" fill="#656380"/><path d="M370.57,785.81c-12.51.1-29.06-1.95-32.39-4-2.54-1.54-3.55-7.09-3.89-9.65l-.37,0s.7,8.93,4,11,19.88,4.08,32.39,4c3.61,0,4.85-1.31,4.79-3.22C374.63,785.07,373.26,785.79,370.57,785.81Z" transform="translate(-333.92 -105.74)" opacity="0.2"/><path d="M 317.2939453125 343.128173828125 L 317.2939453125 343.128173828125" style="fill: rgb(254, 186, 2); fill-opacity: 1; stroke: rgb(0, 0, 0); stroke-opacity: 1; stroke-width: 0; paint-order: fill;"/><path d="M -111.24201202392578 412.0535583496094" style="fill: rgb(254, 186, 2); fill-opacity: 1; stroke: rgb(0, 0, 0); stroke-opacity: 1; stroke-width: 0; paint-order: fill;"/><path d="M 335.2745056152344 218.2633819580078" style="fill: rgb(254, 186, 2); fill-opacity: 1; stroke: rgb(0, 0, 0); stroke-opacity: 1; stroke-width: 0; paint-order: fill;"/><path d="M 319.7427673339844 475.7903137207031 L 319.7427673339844 475.7903137207031" style="fill: rgb(63, 61, 86); fill-opacity: 1; stroke: rgb(0, 0, 0); stroke-opacity: 1; stroke-width: 0; paint-order: fill;"/></g></svg>
